<mxfile host="app.diagrams.net" agent="Mozilla/5.0 (Windows NT 10.0; Win64; x64) AppleWebKit/537.36 (KHTML, like Gecko) Chrome/128.0.0.0 Safari/537.36" version="24.7.12">
  <diagram name="Seite-1" id="hp_qmWSU174JRnaXOhAg">
    <mxGraphModel dx="1994" dy="739" grid="1" gridSize="10" guides="1" tooltips="1" connect="1" arrows="1" fold="1" page="1" pageScale="1" pageWidth="827" pageHeight="1169" math="0" shadow="0">
      <root>
        <mxCell id="0" />
        <mxCell id="1" parent="0" />
        <mxCell id="a6Mz-yWxtfev6vMqc6ut-10" style="edgeStyle=orthogonalEdgeStyle;rounded=0;orthogonalLoop=1;jettySize=auto;html=1;entryX=0.5;entryY=0;entryDx=0;entryDy=0;" edge="1" parent="1" source="a6Mz-yWxtfev6vMqc6ut-1" target="a6Mz-yWxtfev6vMqc6ut-2">
          <mxGeometry relative="1" as="geometry" />
        </mxCell>
        <mxCell id="a6Mz-yWxtfev6vMqc6ut-1" value="Kein Internet" style="ellipse;whiteSpace=wrap;html=1;" vertex="1" parent="1">
          <mxGeometry width="160" height="120" as="geometry" />
        </mxCell>
        <mxCell id="a6Mz-yWxtfev6vMqc6ut-11" style="edgeStyle=orthogonalEdgeStyle;rounded=0;orthogonalLoop=1;jettySize=auto;html=1;entryX=0.5;entryY=1;entryDx=0;entryDy=0;" edge="1" parent="1" source="a6Mz-yWxtfev6vMqc6ut-2" target="a6Mz-yWxtfev6vMqc6ut-3">
          <mxGeometry relative="1" as="geometry">
            <mxPoint x="440" y="130" as="targetPoint" />
          </mxGeometry>
        </mxCell>
        <mxCell id="a6Mz-yWxtfev6vMqc6ut-15" value="JA" style="edgeLabel;html=1;align=center;verticalAlign=middle;resizable=0;points=[];" vertex="1" connectable="0" parent="a6Mz-yWxtfev6vMqc6ut-11">
          <mxGeometry x="-0.352" y="-2" relative="1" as="geometry">
            <mxPoint as="offset" />
          </mxGeometry>
        </mxCell>
        <mxCell id="a6Mz-yWxtfev6vMqc6ut-12" style="edgeStyle=orthogonalEdgeStyle;rounded=0;orthogonalLoop=1;jettySize=auto;html=1;exitX=0.5;exitY=1;exitDx=0;exitDy=0;entryX=0.5;entryY=0;entryDx=0;entryDy=0;" edge="1" parent="1" source="a6Mz-yWxtfev6vMqc6ut-2" target="a6Mz-yWxtfev6vMqc6ut-4">
          <mxGeometry relative="1" as="geometry" />
        </mxCell>
        <mxCell id="a6Mz-yWxtfev6vMqc6ut-16" value="Nein" style="edgeLabel;html=1;align=center;verticalAlign=middle;resizable=0;points=[];" vertex="1" connectable="0" parent="a6Mz-yWxtfev6vMqc6ut-12">
          <mxGeometry x="-0.1333" y="-3" relative="1" as="geometry">
            <mxPoint as="offset" />
          </mxGeometry>
        </mxCell>
        <mxCell id="a6Mz-yWxtfev6vMqc6ut-2" value="Haben sie Internet" style="rhombus;whiteSpace=wrap;html=1;" vertex="1" parent="1">
          <mxGeometry y="160" width="160" height="100" as="geometry" />
        </mxCell>
        <mxCell id="a6Mz-yWxtfev6vMqc6ut-3" value="Internet geht" style="ellipse;whiteSpace=wrap;html=1;" vertex="1" parent="1">
          <mxGeometry x="-280" width="150" height="120" as="geometry" />
        </mxCell>
        <mxCell id="a6Mz-yWxtfev6vMqc6ut-13" style="edgeStyle=orthogonalEdgeStyle;rounded=0;orthogonalLoop=1;jettySize=auto;html=1;exitX=0.5;exitY=1;exitDx=0;exitDy=0;entryX=0.5;entryY=0;entryDx=0;entryDy=0;" edge="1" parent="1" source="a6Mz-yWxtfev6vMqc6ut-4" target="a6Mz-yWxtfev6vMqc6ut-5">
          <mxGeometry relative="1" as="geometry" />
        </mxCell>
        <mxCell id="a6Mz-yWxtfev6vMqc6ut-17" value="Nein" style="edgeLabel;html=1;align=center;verticalAlign=middle;resizable=0;points=[];" vertex="1" connectable="0" parent="a6Mz-yWxtfev6vMqc6ut-13">
          <mxGeometry x="0.1" y="-1" relative="1" as="geometry">
            <mxPoint as="offset" />
          </mxGeometry>
        </mxCell>
        <mxCell id="a6Mz-yWxtfev6vMqc6ut-20" style="edgeStyle=orthogonalEdgeStyle;rounded=0;orthogonalLoop=1;jettySize=auto;html=1;entryX=0;entryY=0.5;entryDx=0;entryDy=0;" edge="1" parent="1" source="a6Mz-yWxtfev6vMqc6ut-4" target="a6Mz-yWxtfev6vMqc6ut-19">
          <mxGeometry relative="1" as="geometry" />
        </mxCell>
        <mxCell id="a6Mz-yWxtfev6vMqc6ut-22" value="JA" style="edgeLabel;html=1;align=center;verticalAlign=middle;resizable=0;points=[];" vertex="1" connectable="0" parent="a6Mz-yWxtfev6vMqc6ut-20">
          <mxGeometry x="-0.368" relative="1" as="geometry">
            <mxPoint as="offset" />
          </mxGeometry>
        </mxCell>
        <mxCell id="a6Mz-yWxtfev6vMqc6ut-4" value="Haben sie Wlan oder E&lt;span style=&quot;background-color: initial;&quot;&gt;thernet, firewire&amp;nbsp;&lt;/span&gt;&lt;div&gt;&lt;div&gt;deaktiviert&lt;/div&gt;&lt;/div&gt;" style="rhombus;whiteSpace=wrap;html=1;" vertex="1" parent="1">
          <mxGeometry y="320" width="160" height="100" as="geometry" />
        </mxCell>
        <mxCell id="a6Mz-yWxtfev6vMqc6ut-14" style="edgeStyle=orthogonalEdgeStyle;rounded=0;orthogonalLoop=1;jettySize=auto;html=1;exitX=0.5;exitY=1;exitDx=0;exitDy=0;" edge="1" parent="1" source="a6Mz-yWxtfev6vMqc6ut-5" target="a6Mz-yWxtfev6vMqc6ut-6">
          <mxGeometry relative="1" as="geometry" />
        </mxCell>
        <mxCell id="a6Mz-yWxtfev6vMqc6ut-18" value="Nein" style="edgeLabel;html=1;align=center;verticalAlign=middle;resizable=0;points=[];" vertex="1" connectable="0" parent="a6Mz-yWxtfev6vMqc6ut-14">
          <mxGeometry x="0.1" y="1" relative="1" as="geometry">
            <mxPoint as="offset" />
          </mxGeometry>
        </mxCell>
        <mxCell id="a6Mz-yWxtfev6vMqc6ut-29" style="edgeStyle=orthogonalEdgeStyle;rounded=0;orthogonalLoop=1;jettySize=auto;html=1;exitX=1;exitY=0.5;exitDx=0;exitDy=0;entryX=0;entryY=0.5;entryDx=0;entryDy=0;" edge="1" parent="1" source="a6Mz-yWxtfev6vMqc6ut-5" target="a6Mz-yWxtfev6vMqc6ut-27">
          <mxGeometry relative="1" as="geometry" />
        </mxCell>
        <mxCell id="a6Mz-yWxtfev6vMqc6ut-32" value="Ja" style="edgeLabel;html=1;align=center;verticalAlign=middle;resizable=0;points=[];" vertex="1" connectable="0" parent="a6Mz-yWxtfev6vMqc6ut-29">
          <mxGeometry x="-0.24" y="-1" relative="1" as="geometry">
            <mxPoint as="offset" />
          </mxGeometry>
        </mxCell>
        <mxCell id="a6Mz-yWxtfev6vMqc6ut-5" value="Haben sie keine Internet verbunden&lt;span style=&quot;background-color: initial;&quot;&gt;?&lt;/span&gt;" style="rhombus;whiteSpace=wrap;html=1;" vertex="1" parent="1">
          <mxGeometry y="480" width="160" height="100" as="geometry" />
        </mxCell>
        <mxCell id="a6Mz-yWxtfev6vMqc6ut-34" value="" style="edgeStyle=orthogonalEdgeStyle;rounded=0;orthogonalLoop=1;jettySize=auto;html=1;" edge="1" parent="1" source="a6Mz-yWxtfev6vMqc6ut-6" target="a6Mz-yWxtfev6vMqc6ut-33">
          <mxGeometry relative="1" as="geometry" />
        </mxCell>
        <mxCell id="a6Mz-yWxtfev6vMqc6ut-35" value="Ja" style="edgeLabel;html=1;align=center;verticalAlign=middle;resizable=0;points=[];" vertex="1" connectable="0" parent="a6Mz-yWxtfev6vMqc6ut-34">
          <mxGeometry x="-0.2089" y="1" relative="1" as="geometry">
            <mxPoint as="offset" />
          </mxGeometry>
        </mxCell>
        <mxCell id="a6Mz-yWxtfev6vMqc6ut-39" style="edgeStyle=orthogonalEdgeStyle;rounded=0;orthogonalLoop=1;jettySize=auto;html=1;exitX=0.5;exitY=1;exitDx=0;exitDy=0;" edge="1" parent="1" source="a6Mz-yWxtfev6vMqc6ut-6" target="a6Mz-yWxtfev6vMqc6ut-7">
          <mxGeometry relative="1" as="geometry" />
        </mxCell>
        <mxCell id="a6Mz-yWxtfev6vMqc6ut-40" value="Nein" style="edgeLabel;html=1;align=center;verticalAlign=middle;resizable=0;points=[];" vertex="1" connectable="0" parent="a6Mz-yWxtfev6vMqc6ut-39">
          <mxGeometry x="-0.1815" relative="1" as="geometry">
            <mxPoint as="offset" />
          </mxGeometry>
        </mxCell>
        <mxCell id="a6Mz-yWxtfev6vMqc6ut-6" value="Haben sie keine Ip adresse" style="rhombus;whiteSpace=wrap;html=1;" vertex="1" parent="1">
          <mxGeometry y="640" width="160" height="100" as="geometry" />
        </mxCell>
        <mxCell id="a6Mz-yWxtfev6vMqc6ut-7" value="Support" style="rhombus;whiteSpace=wrap;html=1;" vertex="1" parent="1">
          <mxGeometry y="800" width="160" height="100" as="geometry" />
        </mxCell>
        <mxCell id="a6Mz-yWxtfev6vMqc6ut-30" style="edgeStyle=orthogonalEdgeStyle;rounded=0;orthogonalLoop=1;jettySize=auto;html=1;exitX=1;exitY=0.5;exitDx=0;exitDy=0;entryX=0.5;entryY=1;entryDx=0;entryDy=0;" edge="1" parent="1" source="a6Mz-yWxtfev6vMqc6ut-19" target="a6Mz-yWxtfev6vMqc6ut-24">
          <mxGeometry relative="1" as="geometry" />
        </mxCell>
        <mxCell id="a6Mz-yWxtfev6vMqc6ut-19" value="Internet Medium Aktivieren" style="rounded=0;whiteSpace=wrap;html=1;" vertex="1" parent="1">
          <mxGeometry x="210" y="340" width="120" height="60" as="geometry" />
        </mxCell>
        <mxCell id="a6Mz-yWxtfev6vMqc6ut-26" style="edgeStyle=orthogonalEdgeStyle;rounded=0;orthogonalLoop=1;jettySize=auto;html=1;exitX=0;exitY=0.5;exitDx=0;exitDy=0;entryX=1;entryY=0.5;entryDx=0;entryDy=0;" edge="1" parent="1" source="a6Mz-yWxtfev6vMqc6ut-24" target="a6Mz-yWxtfev6vMqc6ut-2">
          <mxGeometry relative="1" as="geometry" />
        </mxCell>
        <mxCell id="a6Mz-yWxtfev6vMqc6ut-24" value="Pozess neu starten" style="rounded=0;whiteSpace=wrap;html=1;" vertex="1" parent="1">
          <mxGeometry x="290" y="180" width="120" height="60" as="geometry" />
        </mxCell>
        <mxCell id="a6Mz-yWxtfev6vMqc6ut-31" style="edgeStyle=orthogonalEdgeStyle;rounded=0;orthogonalLoop=1;jettySize=auto;html=1;exitX=1;exitY=0.5;exitDx=0;exitDy=0;" edge="1" parent="1" source="a6Mz-yWxtfev6vMqc6ut-27">
          <mxGeometry relative="1" as="geometry">
            <mxPoint x="350" y="240" as="targetPoint" />
          </mxGeometry>
        </mxCell>
        <mxCell id="a6Mz-yWxtfev6vMqc6ut-27" value="Verbinden sie ihr Ethernet kabel oder Wlan" style="rounded=0;whiteSpace=wrap;html=1;" vertex="1" parent="1">
          <mxGeometry x="210" y="500" width="120" height="60" as="geometry" />
        </mxCell>
        <mxCell id="a6Mz-yWxtfev6vMqc6ut-37" style="edgeStyle=orthogonalEdgeStyle;rounded=0;orthogonalLoop=1;jettySize=auto;html=1;" edge="1" parent="1" source="a6Mz-yWxtfev6vMqc6ut-33">
          <mxGeometry relative="1" as="geometry">
            <mxPoint x="350" y="260" as="targetPoint" />
          </mxGeometry>
        </mxCell>
        <mxCell id="a6Mz-yWxtfev6vMqc6ut-33" value="schalten sie ihr THCP ein ( Rooter Smartswitch)" style="whiteSpace=wrap;html=1;" vertex="1" parent="1">
          <mxGeometry x="210" y="660" width="120" height="60" as="geometry" />
        </mxCell>
      </root>
    </mxGraphModel>
  </diagram>
</mxfile>
